#Comment line ignore any data following # character 
#Hierarchical Translation and Rotation (.htr) file 
[Header]	
#Header keywords are followed by a single value 
FileType HTR		#Single word string
DataType HTRS		#Translation followed by rotation and scale data
FileVersion 1		#integer
NumSegments 84		#integer
NumFrames 2		#integer
DataFrameRate 30		#integer, data frame rate in this file
EulerRotationOrder ZYX
CalibrationUnits mm
RotationUnits Degrees
GlobalAxisofGravity Y
BoneLengthAxis Y
ScaleFactor 1.00
[SegmentNames&Hierarchy]
#CHILD	PARENT
MASTER GLOBAL
root MASTER
chest root
L_mid_tent01 root
R_mid_tent01 root
spine01 root
Bip01_Neck chest
L_humerus chest
R_humerus chest
weapon_bone chest
Bip01_Head Bip01_Neck
eye_left_bone Bip01_Head
eye_right_bone Bip01_Head
L_forearm L_humerus
L_front_hand L_forearm
L_weapon_bone L_forearm
L_front_hand01_01 L_front_hand
L_front_hand02_01 L_front_hand
L_front_hand03_01 L_front_hand
L_front_hand01_02 L_front_hand01_01
L_front_hand02_02 L_front_hand02_01
L_front_hand03_02 L_front_hand03_01
R_forearm R_humerus
R_front_hand R_forearm
R_weapon_bone R_forearm
R_front_hand01_01 R_front_hand
R_front_hand02_01 R_front_hand
R_front_hand03_01 R_front_hand
R_front_hand01_02 R_front_hand01_01
R_front_hand02_02 R_front_hand02_01
R_front_hand03_02 R_front_hand03_01
null_rope01_connect L_mid_tent01
Rope1_Seg01 null_rope01_connect
Rope1_Seg02 Rope1_Seg01
Rope1_Seg03 Rope1_Seg02
Rope1_Seg04 Rope1_Seg03
Rope1_Seg05 Rope1_Seg04
Rope1_Seg06 Rope1_Seg05
Rope1_Seg07 Rope1_Seg06
Rope1_Seg09 Rope1_Seg07
L_mid_hand01 Rope1_Seg09
L_mid_hand02 Rope1_Seg09
L_mid_hand03 Rope1_Seg09
null_rope02_connect R_mid_tent01
Rope2_Seg01 null_rope02_connect
Rope2_Seg02 Rope2_Seg01
Rope2_Seg03 Rope2_Seg02
Rope2_Seg04 Rope2_Seg03
Rope2_Seg05 Rope2_Seg04
Rope2_Seg06 Rope2_Seg05
Rope2_Seg07 Rope2_Seg06
Rope2_Seg09 Rope2_Seg07
R_mid_hand01 Rope2_Seg09
R_mid_hand02 Rope2_Seg09
R_mid_hand03 Rope2_Seg09
spine02 spine01
spine03 spine02
pelvis spine03
null_rope03_connect pelvis
null_rope04_connect pelvis
Rope3_Seg01 null_rope03_connect
Rope3_Seg02 Rope3_Seg01
Rope3_Seg03 Rope3_Seg02
Rope3_Seg04 Rope3_Seg03
Rope3_Seg05 Rope3_Seg04
Rope3_Seg06 Rope3_Seg05
Rope3_Seg07 Rope3_Seg06
Rope3_Seg08 Rope3_Seg07
Rope3_Seg09 Rope3_Seg08
R_rear_hand01 Rope3_Seg09
R_rear_hand02 Rope3_Seg09
R_rear_hand03 Rope3_Seg09
Rope4_Seg01 null_rope04_connect
Rope4_Seg02 Rope4_Seg01
Rope4_Seg03 Rope4_Seg02
Rope4_Seg04 Rope4_Seg03
Rope4_Seg05 Rope4_Seg04
Rope4_Seg06 Rope4_Seg05
Rope4_Seg07 Rope4_Seg06
Rope4_Seg08 Rope4_Seg07
Rope4_Seg09 Rope4_Seg08
L_rear_hand01 Rope4_Seg09
L_rear_hand02 Rope4_Seg09
L_rear_hand03 Rope4_Seg09
[BasePosition]
#SegmentName Tx, Ty, Tz, Rx, Ry, Rz, BoneLength
MASTER 0.000000 0.000000 0.000000 -90.000000 0.000000 0.000000 10.000000 
root 0.000000 0.000000 0.000000 0.000000 0.000000 0.000000 10.000000 
chest 0.000000 0.000000 0.000000 0.000000 0.000000 0.000000 10.000000 
L_mid_tent01 0.000000 0.000000 0.000000 0.000000 0.000000 0.000000 10.000000 
R_mid_tent01 0.000000 0.000000 0.000000 0.000000 0.000000 0.000000 10.000000 
spine01 0.000000 0.000000 0.000000 0.000000 0.000000 0.000000 10.000000 
Bip01_Neck 0.000000 0.000000 0.000000 0.000000 0.000000 0.000000 10.000000 
L_humerus 0.000000 0.000000 0.000000 0.000000 0.000000 0.000000 10.000000 
R_humerus 0.000000 0.000000 0.000000 0.000000 0.000000 0.000000 10.000000 
weapon_bone 0.000000 0.000000 0.000000 0.000000 0.000000 0.000000 10.000000 
Bip01_Head 0.000000 0.000000 0.000000 0.000000 0.000000 0.000000 10.000000 
eye_left_bone 0.000000 0.000000 0.000000 0.000000 0.000000 0.000000 10.000000 
eye_right_bone 0.000000 0.000000 0.000000 0.000000 0.000000 0.000000 10.000000 
L_forearm 0.000000 0.000000 0.000000 0.000000 0.000000 0.000000 10.000000 
L_front_hand 0.000000 0.000000 0.000000 0.000000 0.000000 0.000000 10.000000 
L_weapon_bone 0.000000 0.000000 0.000000 0.000000 0.000000 0.000000 10.000000 
L_front_hand01_01 0.000000 0.000000 0.000000 0.000000 0.000000 0.000000 10.000000 
L_front_hand02_01 0.000000 0.000000 0.000000 0.000000 0.000000 0.000000 10.000000 
L_front_hand03_01 0.000000 0.000000 0.000000 0.000000 0.000000 0.000000 10.000000 
L_front_hand01_02 0.000000 0.000000 0.000000 0.000000 0.000000 0.000000 10.000000 
L_front_hand02_02 0.000000 0.000000 0.000000 0.000000 0.000000 0.000000 10.000000 
L_front_hand03_02 0.000000 0.000000 0.000000 0.000000 0.000000 0.000000 10.000000 
R_forearm 0.000000 0.000000 0.000000 0.000000 0.000000 0.000000 10.000000 
R_front_hand 0.000000 0.000000 0.000000 0.000000 0.000000 0.000000 10.000000 
R_weapon_bone 0.000000 0.000000 0.000000 0.000000 0.000000 0.000000 10.000000 
R_front_hand01_01 0.000000 0.000000 0.000000 0.000000 0.000000 0.000000 10.000000 
R_front_hand02_01 0.000000 0.000000 0.000000 0.000000 0.000000 0.000000 10.000000 
R_front_hand03_01 0.000000 0.000000 0.000000 0.000000 0.000000 0.000000 10.000000 
R_front_hand01_02 0.000000 0.000000 0.000000 0.000000 0.000000 0.000000 10.000000 
R_front_hand02_02 0.000000 0.000000 0.000000 0.000000 0.000000 0.000000 10.000000 
R_front_hand03_02 0.000000 0.000000 0.000000 0.000000 0.000000 0.000000 10.000000 
null_rope01_connect 0.000000 0.000000 0.000000 0.000000 0.000000 0.000000 10.000000 
Rope1_Seg01 0.000000 0.000000 0.000000 0.000000 0.000000 0.000000 10.000000 
Rope1_Seg02 0.000000 0.000000 0.000000 0.000000 0.000000 0.000000 10.000000 
Rope1_Seg03 0.000000 0.000000 0.000000 0.000000 0.000000 0.000000 10.000000 
Rope1_Seg04 0.000000 0.000000 0.000000 0.000000 0.000000 0.000000 10.000000 
Rope1_Seg05 0.000000 0.000000 0.000000 0.000000 0.000000 0.000000 10.000000 
Rope1_Seg06 0.000000 0.000000 0.000000 0.000000 0.000000 0.000000 10.000000 
Rope1_Seg07 0.000000 0.000000 0.000000 0.000000 0.000000 0.000000 10.000000 
Rope1_Seg09 0.000000 0.000000 0.000000 0.000000 0.000000 0.000000 10.000000 
L_mid_hand01 0.000000 0.000000 0.000000 0.000000 0.000000 0.000000 10.000000 
L_mid_hand02 0.000000 0.000000 0.000000 0.000000 0.000000 0.000000 10.000000 
L_mid_hand03 0.000000 0.000000 0.000000 0.000000 0.000000 0.000000 10.000000 
null_rope02_connect 0.000000 0.000000 0.000000 0.000000 0.000000 0.000000 10.000000 
Rope2_Seg01 0.000000 0.000000 0.000000 0.000000 0.000000 0.000000 10.000000 
Rope2_Seg02 0.000000 0.000000 0.000000 0.000000 0.000000 0.000000 10.000000 
Rope2_Seg03 0.000000 0.000000 0.000000 0.000000 0.000000 0.000000 10.000000 
Rope2_Seg04 0.000000 0.000000 0.000000 0.000000 0.000000 0.000000 10.000000 
Rope2_Seg05 0.000000 0.000000 0.000000 0.000000 0.000000 0.000000 10.000000 
Rope2_Seg06 0.000000 0.000000 0.000000 0.000000 0.000000 0.000000 10.000000 
Rope2_Seg07 0.000000 0.000000 0.000000 0.000000 0.000000 0.000000 10.000000 
Rope2_Seg09 0.000000 0.000000 0.000000 0.000000 0.000000 0.000000 10.000000 
R_mid_hand01 0.000000 0.000000 0.000000 0.000000 0.000000 0.000000 10.000000 
R_mid_hand02 0.000000 0.000000 0.000000 0.000000 0.000000 0.000000 10.000000 
R_mid_hand03 0.000000 0.000000 0.000000 0.000000 0.000000 0.000000 10.000000 
spine02 0.000000 0.000000 0.000000 0.000000 0.000000 0.000000 10.000000 
spine03 0.000000 0.000000 0.000000 0.000000 0.000000 0.000000 10.000000 
pelvis 0.000000 0.000000 0.000000 0.000000 0.000000 0.000000 10.000000 
null_rope03_connect 0.000000 0.000000 0.000000 0.000000 0.000000 0.000000 10.000000 
null_rope04_connect 0.000000 0.000000 0.000000 0.000000 0.000000 0.000000 10.000000 
Rope3_Seg01 0.000000 0.000000 0.000000 0.000000 0.000000 0.000000 10.000000 
Rope3_Seg02 0.000000 0.000000 0.000000 0.000000 0.000000 0.000000 10.000000 
Rope3_Seg03 0.000000 0.000000 0.000000 0.000000 0.000000 0.000000 10.000000 
Rope3_Seg04 0.000000 0.000000 0.000000 0.000000 0.000000 0.000000 10.000000 
Rope3_Seg05 0.000000 0.000000 0.000000 0.000000 0.000000 0.000000 10.000000 
Rope3_Seg06 0.000000 0.000000 0.000000 0.000000 0.000000 0.000000 10.000000 
Rope3_Seg07 0.000000 0.000000 0.000000 0.000000 0.000000 0.000000 10.000000 
Rope3_Seg08 0.000000 0.000000 0.000000 0.000000 0.000000 0.000000 10.000000 
Rope3_Seg09 0.000000 0.000000 0.000000 0.000000 0.000000 0.000000 10.000000 
R_rear_hand01 0.000000 0.000000 0.000000 0.000000 0.000000 0.000000 10.000000 
R_rear_hand02 0.000000 0.000000 0.000000 0.000000 0.000000 0.000000 10.000000 
R_rear_hand03 0.000000 0.000000 0.000000 0.000000 0.000000 0.000000 10.000000 
Rope4_Seg01 0.000000 0.000000 0.000000 0.000000 0.000000 0.000000 10.000000 
Rope4_Seg02 0.000000 0.000000 0.000000 0.000000 0.000000 0.000000 10.000000 
Rope4_Seg03 0.000000 0.000000 0.000000 0.000000 0.000000 0.000000 10.000000 
Rope4_Seg04 0.000000 0.000000 0.000000 0.000000 0.000000 0.000000 10.000000 
Rope4_Seg05 0.000000 0.000000 0.000000 0.000000 0.000000 0.000000 10.000000 
Rope4_Seg06 0.000000 0.000000 0.000000 0.000000 0.000000 0.000000 10.000000 
Rope4_Seg07 0.000000 0.000000 0.000000 0.000000 0.000000 0.000000 10.000000 
Rope4_Seg08 0.000000 0.000000 0.000000 0.000000 0.000000 0.000000 10.000000 
Rope4_Seg09 0.000000 0.000000 0.000000 0.000000 0.000000 0.000000 10.000000 
L_rear_hand01 0.000000 0.000000 0.000000 0.000000 0.000000 0.000000 10.000000 
L_rear_hand02 0.000000 0.000000 0.000000 0.000000 0.000000 0.000000 10.000000 
L_rear_hand03 0.000000 0.000000 0.000000 0.000000 0.000000 0.000000 10.000000 
#Beginning of Data. Separated by tabs
#Fr	Tx	Ty	Tz	Rx	Ry	Rz	SF
[MASTER]
24 0.000000 0.000000 0.000000 0.001660 0.001660 0.001660 0.000000
25 0.000000 0.000000 0.000000 0.001660 0.001660 0.001660 0.000000
[root]
24 -16.502338 85.772308 1617.055786 -76.536499 1.300392 -110.356483 1619.412964
25 -16.502338 85.772308 1617.055786 -76.104439 1.328835 -110.564697 1619.412964
[chest]
24 -84.512650 -34.090519 0.000000 -2.124219 -0.011371 167.716492 91.129311
25 -84.512650 -34.090519 0.000000 -2.128652 -0.010812 167.772186 91.129311
[L_mid_tent01]
24 27.299105 22.179163 -249.918701 64.884171 31.428959 155.838699 252.381683
25 27.299105 22.179157 -249.918701 61.736092 35.507130 149.525665 252.381683
[R_mid_tent01]
24 23.228794 24.509907 226.238495 166.880676 -1.989846 45.967693 228.744751
25 23.228794 24.509907 226.238495 168.391968 -3.299269 45.118229 228.744751
[spine01]
24 -0.361383 -0.195265 0.000000 -0.000001 -0.000007 22.052340 0.410763
25 -0.361383 -0.195265 0.000000 -0.000001 -0.000007 22.052340 0.410763
[Bip01_Neck]
24 165.484543 71.581718 0.000119 175.896118 1.177290 24.871183 180.302734
25 165.484543 71.581718 0.000119 175.896118 1.177290 24.871183 180.302734
[L_humerus]
24 -13.983130 -135.272980 -120.471481 -108.882805 23.582390 -4.837714 181.680161
25 -13.983130 -135.272980 -120.471481 -112.242889 28.275280 -9.344583 181.680161
[R_humerus]
24 -13.983309 -135.273102 125.287651 -172.031860 -60.998398 -90.632729 184.909012
25 -13.983309 -135.273102 125.287651 -174.511139 -64.155273 -88.056458 184.909012
[weapon_bone]
24 235.964890 -300.705902 0.000000 0.000000 -89.951546 -128.212341 382.234833
25 235.964890 -300.705902 0.000000 0.000000 -89.951546 -128.212341 382.234833
[Bip01_Head]
24 176.138641 184.858658 9.553790 1.720001 0.214915 -41.865578 255.516769
25 179.434082 180.768631 8.992991 1.832631 0.683816 -44.011982 254.862244
[eye_left_bone]
24 33.705750 158.458710 -72.495300 -121.773369 -87.851776 22.325226 177.484665
25 33.498352 158.257401 -72.265335 -122.729263 -87.973579 23.285393 177.171738
[eye_right_bone]
24 40.118252 159.630402 56.405239 58.226994 -87.851601 22.324947 173.991058
25 39.683224 159.477081 56.632874 57.161587 -87.976868 23.394253 173.824570
[L_forearm]
24 322.776093 0.000000 -0.000119 0.001298 0.001955 -22.830032 322.776093
25 322.776093 0.000000 -0.000119 0.001201 0.002017 -28.450514 322.776093
[L_front_hand]
24 241.149185 -0.042021 -3.300071 -72.565620 -2.641708 -12.751505 241.171753
25 241.149185 -0.042021 -3.300071 -126.795837 -2.964866 -11.454537 241.171753
[L_weapon_bone]
24 156.183838 0.000000 0.000000 0.000014 0.000007 0.000001 156.183838
25 156.183838 0.000000 0.000000 0.000014 0.000007 0.000001 156.183838
[L_front_hand01_01]
24 86.095154 20.947098 -0.655860 -0.366594 -0.477154 75.385574 88.609184
25 86.095154 20.947098 -0.655860 -0.366594 -0.477154 75.385574 88.609184
[L_front_hand02_01]
24 86.935165 -11.437475 24.513514 154.399796 -59.883835 -61.369587 91.046425
25 86.935165 -11.437475 24.513514 154.399796 -59.883835 -61.369587 91.046425
[L_front_hand03_01]
24 86.637497 -14.123976 -20.424902 -153.913849 58.118122 -62.702866 90.126129
25 86.637497 -14.123976 -20.424902 -153.913849 58.118122 -62.702866 90.126129
[L_front_hand01_02]
24 71.020905 -0.000179 0.000030 0.000334 -0.002323 -106.379684 71.020905
25 71.020905 -0.000179 0.000030 0.000334 -0.002323 -106.379684 71.020905
[L_front_hand02_02]
24 71.020927 -0.000119 0.000060 0.000334 -0.002323 -106.379684 71.020927
25 71.020927 -0.000119 0.000060 0.000334 -0.002323 -106.379684 71.020927
[L_front_hand03_02]
24 71.020905 -0.000060 0.000060 0.000334 -0.002323 -106.379684 71.020905
25 71.020905 -0.000060 0.000060 0.000334 -0.002323 -106.379684 71.020905
[R_forearm]
24 322.776428 -0.000060 0.000030 0.195159 -0.079645 -69.204613 322.776428
25 322.776428 -0.000060 0.000030 0.199670 -0.075684 -69.866890 322.776428
[R_front_hand]
24 238.847015 -0.006795 2.210259 -2.635298 -10.645461 -26.312506 238.857239
25 238.847015 -0.006795 2.210259 -2.635298 -10.645461 -26.312506 238.857239
[R_weapon_bone]
24 155.664093 0.002503 -0.000030 0.003487 0.001180 -90.988930 155.664078
25 155.664093 0.002503 -0.000030 0.003487 0.001180 -90.988930 155.664078
[R_front_hand01_01]
24 87.624611 14.231146 22.918642 -154.633499 -59.950619 61.746044 91.683487
25 87.624611 14.231146 22.918642 -154.633499 -59.950619 61.746044 91.683487
[R_front_hand02_01]
24 89.356956 14.367283 -19.491137 154.602661 58.302849 63.744389 92.579636
25 89.356956 14.367283 -19.491137 154.602661 58.302849 63.744389 92.579636
[R_front_hand03_01]
24 87.286232 -22.307278 -0.143439 0.162155 -0.423168 -75.767921 90.091743
25 87.286232 -22.307278 -0.143439 0.162155 -0.423168 -75.767906 90.091743
[R_front_hand01_02]
24 71.020905 0.000060 0.000119 0.002323 -0.000334 106.381714 71.020905
25 71.020905 0.000060 0.000119 0.002323 -0.000334 106.381714 71.020905
[R_front_hand02_02]
24 71.020844 -0.000030 -0.000119 0.002323 -0.000334 106.381714 71.020836
25 71.020844 -0.000030 -0.000119 0.002323 -0.000334 106.381714 71.020836
[R_front_hand03_02]
24 71.020905 0.000000 0.000030 0.002323 -0.000334 106.381714 71.020905
25 71.020905 0.000000 0.000030 0.002323 -0.000334 106.381714 71.020905
[null_rope01_connect]
24 328.732483 0.000000 -0.000238 -157.391281 -28.559586 98.169121 328.732483
25 328.732483 0.000000 -0.000238 -153.759445 -29.021217 102.162544 328.732483
[Rope1_Seg01]
24 0.000000 0.000000 0.000000 85.705353 19.449583 92.799339 0.000000
25 0.000000 0.000000 0.000000 86.860023 22.109053 95.455261 0.000000
[Rope1_Seg02]
24 139.999863 -0.000179 0.000000 0.660272 -4.792009 7.007595 139.999863
25 139.999863 -0.000179 0.000000 0.073888 -6.048695 7.734634 139.999863
[Rope1_Seg03]
24 139.999924 0.000060 -0.000060 1.512463 -4.880853 7.730517 139.999924
25 139.999924 0.000060 -0.000060 0.627172 -6.291785 8.484682 139.999924
[Rope1_Seg04]
24 139.999924 -0.000060 -0.000119 8.073633 -5.548809 12.503072 139.999924
25 139.999924 -0.000060 -0.000119 5.662419 -6.993939 12.511319 139.999924
[Rope1_Seg05]
24 139.999832 0.000119 -0.000060 -3.360931 -2.671568 0.975873 139.999832
25 139.999832 0.000119 -0.000060 -3.143900 -3.557832 2.312096 139.999832
[Rope1_Seg06]
24 139.999954 0.000119 -0.000060 -11.256312 -0.498492 -8.196054 139.999954
25 139.999954 0.000119 -0.000060 -10.916215 -0.644467 -6.702502 139.999954
[Rope1_Seg07]
24 139.999985 0.000060 0.000000 -3.692351 0.229289 -3.534398 139.999985
25 139.999985 0.000060 0.000000 -4.228887 -0.023178 -3.219737 139.999985
[Rope1_Seg09]
24 121.602913 0.000119 -0.000089 38.197166 -1.390055 0.860393 121.602913
25 121.602913 0.000119 -0.000089 28.806524 -0.552354 1.580728 121.602913
[L_mid_hand01]
24 103.859421 1.038730 8.195221 123.429688 -63.258022 -31.050064 104.187431
25 103.859421 1.038730 8.195221 126.924042 -65.633102 -34.926895 104.187431
[L_mid_hand02]
24 105.572853 -4.139662 -10.864139 -164.054062 42.141373 -66.337227 106.211075
25 105.572853 -4.139662 -10.864139 -166.625534 42.877316 -70.146873 106.211075
[L_mid_hand03]
24 104.641464 17.579376 -3.913581 -7.708108 17.164396 69.266495 106.179977
25 104.641464 17.579376 -3.913581 -6.807619 17.530090 72.284416 106.179977
[null_rope02_connect]
24 328.732849 0.000179 -0.000119 121.129868 78.737450 -104.130066 328.732849
25 328.732849 0.000179 -0.000119 128.764313 77.081200 -97.857155 328.732849
[Rope2_Seg01]
24 0.000095 0.000153 0.000049 80.278870 -4.080895 -78.765587 0.000186
25 0.000095 0.000153 0.000051 77.959183 -5.378179 -77.170990 0.000187
[Rope2_Seg02]
24 139.999741 -0.000060 -0.000119 7.577529 9.603927 -10.115268 139.999756
25 139.999741 -0.000060 -0.000119 8.065452 8.596135 -9.976410 139.999756
[Rope2_Seg03]
24 140.000107 0.000030 0.000000 10.765021 7.026012 -7.968572 140.000107
25 140.000107 0.000030 0.000000 10.668457 6.545508 -7.921967 140.000107
[Rope2_Seg04]
24 139.999802 0.000000 -0.000060 11.755310 3.503177 -5.240676 139.999802
25 139.999802 0.000000 -0.000060 11.395453 3.373918 -5.317495 139.999802
[Rope2_Seg05]
24 139.999985 -0.000060 0.000119 31.316927 -1.742137 -8.537559 139.999985
25 139.999985 -0.000060 0.000119 25.512381 -3.085986 -7.386549 139.999985
[Rope2_Seg06]
24 139.999893 -0.000030 -0.000119 52.533421 -30.678612 -28.810598 139.999893
25 139.999893 -0.000030 -0.000119 42.088531 -31.683680 -21.926989 139.999893
[Rope2_Seg07]
24 139.999893 0.000060 -0.000060 2.882146 -50.053383 4.090239 139.999893
25 139.999893 0.000060 -0.000060 3.788254 -51.913002 2.577117 139.999893
[Rope2_Seg09]
24 121.338966 0.000089 -0.000060 33.793236 -1.359788 -0.847141 121.338966
25 121.338966 0.000089 -0.000060 33.793236 -1.359788 -0.847141 121.338966
[R_mid_hand01]
24 104.680779 11.144459 -10.335981 -43.323082 21.654188 24.098280 105.778534
25 104.680779 11.144459 -10.335981 -43.938286 20.114080 22.371922 105.778534
[R_mid_hand02]
24 104.070427 2.443552 8.231699 73.776634 -27.392866 8.157238 104.424065
25 104.070427 2.443552 8.231699 74.082695 -25.252428 7.471605 104.424065
[R_mid_hand03]
24 106.028137 -11.221827 -5.996406 -166.969971 9.041591 -31.474014 106.788818
25 106.028137 -11.221827 -5.996406 -166.638565 8.536322 -29.281851 106.788818
[spine02]
24 129.756927 0.001550 0.000119 0.725324 -3.995478 -18.150242 129.756927
25 129.756927 0.001550 0.000119 0.695698 -4.000560 -17.721016 129.756927
[spine03]
24 78.614067 0.081635 -4.899012 -0.375755 4.258043 -14.901513 78.766602
25 78.614067 0.081635 -4.899012 -0.182888 4.270398 -12.318151 78.766602
[pelvis]
24 169.435242 0.051022 0.000000 -0.061402 -0.179909 14.684183 169.435257
25 169.435242 0.051022 0.000000 -0.061304 -0.179942 14.621357 169.435257
[null_rope03_connect]
24 -1.257226 -2.466202 137.391083 -53.298332 -64.611519 141.131470 137.418976
25 -1.257226 -2.466202 137.391083 -52.800133 -64.200340 137.762344 137.418976
[null_rope04_connect]
24 -1.259640 -2.480268 -137.844437 -53.298332 -64.611519 141.131470 137.872513
25 -1.259640 -2.480268 -137.844437 -52.800133 -64.200340 137.762344 137.872513
[Rope3_Seg01]
24 0.000010 0.000014 -0.000055 -128.909912 12.405614 -68.283951 0.000058
25 0.000010 0.000013 -0.000051 -129.424103 12.446324 -70.442230 0.000053
[Rope3_Seg02]
24 139.999924 -0.000119 0.000060 0.258320 -3.453114 6.935138 139.999924
25 139.999924 -0.000119 0.000060 0.023773 -3.225780 6.951748 139.999924
[Rope3_Seg03]
24 139.999924 -0.000119 0.000119 -0.886773 -5.686975 11.732715 139.999924
25 139.999924 -0.000119 0.000119 -1.284796 -5.377192 11.772749 139.999924
[Rope3_Seg04]
24 139.999924 0.000119 0.000000 -5.525620 -7.516577 21.988813 139.999924
25 139.999924 0.000119 0.000000 -6.255186 -6.475688 22.596355 139.999924
[Rope3_Seg05]
24 139.999924 -0.000238 0.000060 -12.567921 -5.973170 26.665937 139.999924
25 139.999924 -0.000238 0.000060 -14.123744 -6.240593 26.196959 139.999924
[Rope3_Seg06]
24 139.999893 -0.000119 -0.000060 -12.529343 -18.336353 6.870588 139.999893
25 139.999893 -0.000119 -0.000060 -13.447374 -22.551014 4.476559 139.999893
[Rope3_Seg07]
24 139.999771 0.000060 -0.000119 -1.072926 -30.359167 -12.654047 139.999771
25 139.999771 0.000060 -0.000119 1.335597 -30.934416 -16.027653 139.999771
[Rope3_Seg08]
24 139.999985 -0.000060 0.000000 2.392626 -16.061808 -6.268523 139.999985
25 139.999985 -0.000060 0.000000 2.367342 -12.960423 -4.684311 139.999985
[Rope3_Seg09]
24 90.185997 -0.000179 -0.000060 8.879045 -1.361205 -0.848170 90.185997
25 90.185997 -0.000179 -0.000060 -8.875718 -1.358714 -0.845388 90.185997
[R_rear_hand01]
24 103.366196 -6.073594 -10.757982 -161.615463 16.735477 -30.303825 104.101845
25 103.366196 -6.073594 -10.757982 -160.429581 15.319302 -26.019768 104.101845
[R_rear_hand02]
24 100.509819 12.039542 -7.992327 -34.217880 19.412952 29.063128 101.543350
25 100.509819 12.039542 -7.992327 -35.392105 16.927841 25.302744 101.543350
[R_rear_hand03]
24 101.539970 5.215704 5.435467 83.350174 -31.149649 7.314058 101.819031
25 101.539970 5.215704 5.435467 83.622276 -26.827961 6.751023 101.819031
[Rope4_Seg01]
24 0.000010 0.000038 -0.000114 92.263008 -46.450031 -152.768173 0.000121
25 0.000010 0.000038 -0.000114 78.736328 -37.397682 -147.535461 0.000121
[Rope4_Seg02]
24 139.999985 0.000060 0.000119 3.977103 -3.560958 2.373506 139.999985
25 139.999985 0.000060 0.000119 3.954787 -4.145962 1.982935 139.999985
[Rope4_Seg03]
24 139.999924 0.000000 -0.000238 7.082906 -5.390730 4.178157 139.999924
25 139.999924 0.000000 -0.000238 7.545541 -6.473025 3.685696 139.999924
[Rope4_Seg04]
24 139.999985 0.000000 0.000119 15.055822 -8.697496 9.481440 139.999985
25 139.999985 0.000000 0.000119 18.074066 -8.335470 12.509429 139.999985
[Rope4_Seg05]
24 139.999802 -0.000060 -0.000119 26.463289 -6.890229 31.958767 139.999802
25 139.999802 -0.000060 -0.000119 29.529438 -15.157076 24.734051 139.999802
[Rope4_Seg06]
24 139.999924 0.000000 0.000060 17.040804 -15.240925 25.244780 139.999924
25 139.999924 0.000000 0.000060 40.813751 -33.148201 24.188736 139.999924
[Rope4_Seg07]
24 139.999802 0.000000 0.000000 17.695000 -22.416090 17.688715 139.999802
25 139.999802 0.000000 0.000000 13.867124 -1.570120 14.052687 139.999802
[Rope4_Seg08]
24 139.999924 0.000000 0.000119 6.407762 -2.331392 9.857059 139.999924
25 139.999924 0.000000 0.000119 2.468223 1.255769 5.462690 139.999924
[Rope4_Seg09]
24 90.185791 0.000060 0.000060 -84.521866 2.228185 0.850314 90.185791
25 90.185791 0.000060 0.000060 -88.457893 2.228897 0.850498 90.185791
[L_rear_hand01]
24 101.696655 -8.392275 -7.654577 -31.231737 -24.205084 142.915024 102.329041
25 101.696655 -8.392275 -7.654577 -32.601730 -22.214931 146.390656 102.329041
[L_rear_hand02]
24 102.726799 -1.568258 5.773216 82.573174 39.936081 171.355026 102.900848
25 102.726799 -1.568258 5.773216 82.943207 36.203037 171.954926 102.900848
[L_rear_hand03]
24 104.552910 9.721220 -10.420293 -164.376083 -19.329391 -140.791382 105.519653
25 104.552910 9.721220 -10.420293 -163.143448 -18.276052 -144.611130 105.519653
